<?xml version="1.0" encoding="UTF-8"?><svg id="Layer_1" xmlns="http://www.w3.org/2000/svg" viewBox="0 0 25 25"><defs><style>.cls-1{fill:#fff;}.cls-2{stroke:#fff;stroke-miterlimit:10;stroke-width:.5px;}.cls-2,.cls-3{fill:#002a42;}.cls-4{fill:#057f8a;}</style></defs><path class="cls-4" d="M12.5,24.58C5.84,24.58,.42,19.16,.42,12.5S5.84,.42,12.5,.42s12.08,5.42,12.08,12.08-5.42,12.08-12.08,12.08ZM12.5,1.42C6.39,1.42,1.42,6.39,1.42,12.5s4.97,11.08,11.08,11.08,11.08-4.97,11.08-11.08S18.61,1.42,12.5,1.42Z"/><g><rect class="cls-3" x="5.62" y="6.9" width="13.77" height="12.33" rx="1.56" ry="1.56"/><rect class="cls-2" x="8.67" y="5.77" width="2.07" height="2.85" rx=".36" ry=".36"/><rect class="cls-2" x="14.26" y="5.77" width="2.07" height="2.85" rx=".36" ry=".36"/><rect class="cls-1" x="8.48" y="10.89" width="2.45" height="2.45" rx=".44" ry=".44"/><rect class="cls-1" x="14.07" y="10.89" width="2.45" height="2.45" rx=".44" ry=".44"/><rect class="cls-1" x="14.07" y="14.27" width="2.45" height="2.45" rx=".44" ry=".44"/><path class="cls-1" d="M9.77,16.72c-.1,0-.2-.04-.27-.11l-.91-.87c-.15-.15-.16-.39-.01-.55,.15-.15,.39-.16,.55-.01l.6,.58,1.09-1.35c.14-.17,.38-.19,.55-.06,.17,.13,.19,.38,.06,.54l-1.36,1.67c-.07,.08-.17,.14-.28,.14,0,0-.02,0-.02,0Z"/></g></svg>