<?xml version="1.0" encoding="UTF-8"?><svg id="Layer_1" xmlns="http://www.w3.org/2000/svg" viewBox="0 0 60 60"><defs><style>.cls-1{fill:#057f8a;}.cls-2,.cls-3{fill:none;}.cls-4{fill:#002942;}.cls-3{stroke:#002942;stroke-miterlimit:10;stroke-width:2.16px;}</style></defs><rect class="cls-2" y="50.35" width="50.92" height="43.09"/><g><path class="cls-1" d="M12.54,46.1c-.6,0-1.09-.49-1.09-1.09v-1.04h-2.06c-.6,0-1.09-.49-1.09-1.09s.49-1.09,1.09-1.09h4.2c.56,0,1.01-.47,1.01-1.04s-.45-1.04-1.01-1.04h-2.1c-1.76,0-3.19-1.44-3.19-3.22s1.41-3.2,3.15-3.22v-1.04c0-.6,.49-1.09,1.09-1.09s1.09,.49,1.09,1.09v1.04h2.06c.6,0,1.09,.49,1.09,1.09s-.49,1.09-1.09,1.09h-4.19c-.56,0-1.01,.47-1.01,1.04s.45,1.04,1.01,1.04h2.1c1.76,0,3.19,1.44,3.19,3.22s-1.41,3.2-3.15,3.22v1.04c0,.6-.49,1.09-1.09,1.09Z"/><g><path class="cls-4" d="M42.58,38.62H20.93c-.54,0-.98-.44-.98-.98s.44-.98,.98-.98h21.65c.54,0,.98,.44,.98,.98s-.44,.98-.98,.98"/><path class="cls-4" d="M37,43.87H20.93c-.54,0-.98-.44-.98-.98s.44-.98,.98-.98h16.07c.54,0,.98,.44,.98,.98s-.44,.98-.98,.98"/></g><path class="cls-4" d="M51.74,9.7c-.37-1.17-1.46-2.02-2.75-2.02h-.97c-1.6,0-2.9,1.3-2.9,2.9v27.07c0,.13,.02,.25,.07,.37l2.42,5.8c.15,.36,.5,.59,.89,.59,.39,0,.74-.23,.9-.59l2.42-5.8c.05-.12,.07-.24,.07-.37V11.81c.57,.34,.96,.95,.97,1.66v6.77h0c0,.54,.43,.97,.97,.97h0c.53,0,.97-.43,.97-.97v-6.77c0-1.85-1.31-3.4-3.05-3.78Zm-3.72-.09h.97c.51,0,.92,.4,.96,.91,0,.03-.02,.06-.01,.09,0,.04,.02,.08,.03,.12v9.46h-2.9V10.57c0-.53,.43-.97,.97-.97Zm.48,31.33l-1.45-3.48v-15.57s2.9,0,2.9,0v15.57l-1.45,3.48Z"/><path class="cls-3" d="M46.48,24.91H3.75c-.63,0-1.14,.44-1.14,.98v25.46c0,.54,.51,.98,1.14,.98H56.25c.63,0,1.14-.44,1.14-.98V25.89c0-.54-.51-.98-1.14-.98h-4.47"/></g></svg>