<?xml version="1.0" encoding="UTF-8"?><svg id="Layer_1" xmlns="http://www.w3.org/2000/svg" xmlns:xlink="http://www.w3.org/1999/xlink" viewBox="0 0 60 60"><defs><style>.cls-1{clip-path:url(#clippath);}.cls-2{fill:#057f8a;}.cls-3{fill:none;}.cls-4{fill:#002a42;}</style><clipPath id="clippath"><rect class="cls-3" x="4.12" y="4.12" width="51.76" height="51.76"/></clipPath></defs><g class="cls-1"><path class="cls-4" d="M35.97,6.11c7.68,0,13.94,6.25,13.94,13.94s-6.25,13.94-13.94,13.94-13.94-6.25-13.94-13.94,6.25-13.94,13.94-13.94m0,29.87c8.78,0,15.93-7.15,15.93-15.93s-7.15-15.93-15.93-15.93-15.93,7.15-15.93,15.93,7.15,15.93,15.93,15.93m17.9,4.3c-.09,.59-.43,1.11-.92,1.41l-19.08,11.46c-1.19,.74-2.64,.94-3.93,.58l-15.12-5.31c-.89-.28-1.8-.43-2.73-.47v-10.07c.43-.08,.83-.23,1.19-.43,1.64-.96,3.64-1.46,5.78-1.46,2.93,0,5.67,.98,7.35,2.62,.9,.88,2.11,1.36,3.41,1.36h10.14c.55,0,1.07,.22,1.44,.62,.38,.4,.57,.93,.54,1.48-.05,1.04-1.02,1.88-2.16,1.88h-14.76c-.55,0-.99,.45-.99,.99s.44,1,.99,1h14.76c2.22,0,4.04-1.66,4.14-3.77,0-.09-.01-.17-.01-.26l6.91-3.69c.88-.45,1.96-.28,2.55,.41,.4,.47,.58,1.05,.49,1.65m1.02-2.95c-1.19-1.37-3.27-1.74-4.98-.87l-6.53,3.48c-.15-.26-.33-.5-.54-.72-.75-.79-1.8-1.24-2.89-1.24h-10.14c-.78,0-1.5-.28-2.02-.8-2.07-2.02-5.26-3.18-8.74-3.18-2.49,0-4.84,.6-6.79,1.74-.05,.03-.12,.05-.18,.07v-.81c0-.55-.45-.99-.99-.99H5.11c-.55,0-1,.44-1,.99s.45,1,1,1h4.98v15.93h-2.99c-.55,0-1,.45-1,.99s.45,1,1,1h3.98c.55,0,.99-.45,.99-1v-2.95c.72,.04,1.44,.15,2.11,.35l15.15,5.32c.62,.18,1.26,.26,1.9,.26,1.29,0,2.56-.35,3.67-1.04l19.08-11.46c1-.62,1.67-1.65,1.85-2.81,.18-1.16-.17-2.35-.95-3.25"/><path class="cls-2" d="M36.97,23.03h-3.98c-.55,0-1,.45-1,1s.45,.99,1,.99h1.99v1.99c0,.55,.45,1,.99,1s1-.45,1-1v-1.99c1.65,0,2.99-1.34,2.99-2.99s-1.34-2.98-2.99-2.98h-1.99c-.55,0-1-.45-1-1s.45-1,1-1h3.98c.55,0,1-.45,1-.99s-.45-1-1-1h-1.99v-1.99c0-.55-.45-1-1-1s-.99,.45-.99,1v1.99c-1.65,0-2.99,1.34-2.99,2.99s1.34,2.99,2.99,2.99h1.99c.55,0,1,.45,1,.99s-.45,1-1,1"/></g></svg>