<?xml version="1.0" encoding="UTF-8"?><svg id="Layer_1" xmlns="http://www.w3.org/2000/svg" viewBox="0 0 25 25"><defs><style>.cls-1{fill:#fff;}.cls-2{fill:#057f8a;}.cls-3{fill:#002a42;}</style></defs><path class="cls-2" d="M12.5,24.58C5.84,24.58,.42,19.16,.42,12.5S5.84,.42,12.5,.42s12.08,5.42,12.08,12.08-5.42,12.08-12.08,12.08ZM12.5,1.42C6.39,1.42,1.42,6.39,1.42,12.5s4.97,11.08,11.08,11.08,11.08-4.97,11.08-11.08S18.61,1.42,12.5,1.42Z"/><g><path class="cls-3" d="M12.5,19.42s2.85-3.11,4.11-5.47l.31-.61c.43-.91,.71-1.82,.71-2.65,0-2.82-2.3-5.12-5.12-5.12s-5.12,2.3-5.12,5.12c0,.82,.28,1.74,.71,2.65l.31,.61c1.26,2.35,4.11,5.47,4.11,5.47"/><circle class="cls-1" cx="12.5" cy="10.84" r="2.23"/></g></svg>