<?xml version="1.0" encoding="UTF-8"?><svg id="Layer_1" xmlns="http://www.w3.org/2000/svg" viewBox="0 0 50 50"><defs><style>.cls-1{fill:#fff;}.cls-2{fill:#002a42;}</style></defs><rect class="cls-2" x="4" y="4" width="42" height="42" rx="10" ry="10"/><g><path class="cls-1" d="m40.52,30.17v-11.83c0-3.27-2.65-5.91-5.91-5.91h-15.52c-3.27,0-5.91,2.65-5.91,5.91v11.83h27.35Z"/><path class="cls-1" d="m15.39,29.43c0,.41-.33.74-.74.74h-4.43c-.41,0-.74-.33-.74-.74h0c0-.41.33-.74.74-.74h4.43c.41,0,.74.33.74.74h0Z"/><path class="cls-2" d="m19.09,13.91c-2.45,0-4.43,1.99-4.43,4.43v10.35h8.87v-10.35c0-2.45-1.99-4.43-4.43-4.43Z"/><path class="cls-2" d="m28.7,16.87c-.82,0-1.48.66-1.48,1.48s.66,1.48,1.48,1.48,1.48-.66,1.48-1.48-.66-1.48-1.48-1.48Z"/><path class="cls-1" d="m25.74,30.17h3.7v7.39h-3.7v-7.39Z"/><path class="cls-2" d="m25.74,30.17h3.7v1.48h-3.7v-1.48Z"/><g><polygon class="cls-1" points="25.59 20.41 18.53 20.41 22.06 23.75 25.59 20.41"/><polygon class="cls-1" points="22.06 25.26 17.73 21.16 17.73 27.87 26.39 27.87 26.39 21.16 22.06 25.26"/></g></g></svg>