<svg xmlns="http://www.w3.org/2000/svg" width="65.358" height="60.331">
  <path d="M60.327 5.03h-15.08V1.257a1.257 1.257 0 1 0-2.514 0V5.03H22.622V1.257a1.257 1.257 0 1 0-2.514 0V5.03H5.026A5.027 5.027 0 0 0 0 10.058v45.247a5.03 5.03 0 0 0 5.026 5.028h55.305a5.026 5.026 0 0 0 5.026-5.024V10.055a5.026 5.026 0 0 0-5.023-5.025ZM2.512 10.055A2.518 2.518 0 0 1 5.026 7.54h15.081v2.515a1.257 1.257 0 0 0 2.514 0V7.54h20.11v2.515a1.257 1.257 0 1 0 2.514 0V7.54h15.082a2.524 2.524 0 0 1 2.517 2.517v2.514H2.512Zm0 5.026h60.33v35.194a2.522 2.522 0 0 1-2.517 2.514h-55.3a2.517 2.517 0 0 1-2.512-2.5V15.082Zm60.33 40.221a2.522 2.522 0 0 1-2.514 2.514H5.023a2.516 2.516 0 0 1-2.512-2.514v-.7a4.986 4.986 0 0 0 2.512.7h55.3a4.974 4.974 0 0 0 2.517-.7Z" fill="#002942">
  </path>
  <path data-name="Path 641" d="M17.601 20.111h-7.547a1.249 1.249 0 0 0-1.256 1.241v5.043a1.253 1.253 0 0 0 1.25 1.256h7.548a1.258 1.258 0 0 0 1.256-1.256v-5.029a1.252 1.252 0 0 0-1.251-1.255Zm-1.263 5.026h-5.027v-2.518h5.026v2.518Z" fill="#00a1af">
  </path>
  <path data-name="Path 642" d="M17.605 30.167h-7.55a1.248 1.248 0 0 0-1.257 1.24v5.042a1.256 1.256 0 0 0 1.253 1.258h7.546a1.261 1.261 0 0 0 1.258-1.258v-5.028a1.253 1.253 0 0 0-1.25-1.254Zm-1.267 5.028h-5.029v-2.523h5.029Z" fill="#00a1af">
  </path>
  <path data-name="Path 643" d="M17.603 40.219h-7.549a1.251 1.251 0 0 0-1.256 1.247v5.038a1.256 1.256 0 0 0 1.256 1.255h7.542a1.258 1.258 0 0 0 1.256-1.255v-5.028a1.254 1.254 0 0 0-1.249-1.257Zm-1.264 5.028h-5.03v-2.52h5.029Z" fill="#00a1af">
  </path>
  <path data-name="Path 644" d="M30.169 20.111h-7.547a1.248 1.248 0 0 0-1.257 1.24v5.045a1.256 1.256 0 0 0 1.256 1.256h7.543a1.258 1.258 0 0 0 1.256-1.256v-5.029a1.251 1.251 0 0 0-1.251-1.256Zm-1.261 5.026h-5.03v-2.518h5.028Z" fill="#00a1af">
  </path>
  <path data-name="Path 645" d="M30.17 30.167h-7.549a1.248 1.248 0 0 0-1.256 1.239v5.043a1.257 1.257 0 0 0 1.256 1.258h7.549a1.258 1.258 0 0 0 1.254-1.258v-5.028a1.251 1.251 0 0 0-1.254-1.254Zm-1.264 5.028H23.88v-2.523h5.028Z" fill="#00a1af">
  </path>
  <path data-name="Path 646" d="M30.168 40.219h-7.544a1.251 1.251 0 0 0-1.257 1.244v5.04a1.256 1.256 0 0 0 1.256 1.256h7.543a1.26 1.26 0 0 0 1.257-1.256v-5.028a1.257 1.257 0 0 0-1.255-1.256Zm-1.26 5.028h-5.034v-2.52h5.029Z" fill="#00a1af">
  </path>
  <path data-name="Path 647" d="M42.74 20.111h-7.547a1.255 1.255 0 0 0-1.257 1.254v5.029a1.256 1.256 0 0 0 1.256 1.256h7.542a1.258 1.258 0 0 0 1.257-1.256v-5.029a1.252 1.252 0 0 0-1.251-1.254Zm-1.264 5.026h-5.029v-2.518h5.029Z" fill="#00a1af">
  </path>
  <path data-name="Path 648" d="M42.739 30.167h-7.546a1.249 1.249 0 0 0-1.258 1.239v5.043a1.256 1.256 0 0 0 1.253 1.258h7.546a1.26 1.26 0 0 0 1.257-1.258v-5.028a1.252 1.252 0 0 0-1.252-1.254Zm-1.263 5.028h-5.029v-2.523h5.029Z" fill="#00a1af">
  </path>
  <path data-name="Path 649" d="M42.737 40.219h-7.546a1.251 1.251 0 0 0-1.257 1.244v5.04a1.256 1.256 0 0 0 1.256 1.256h7.542a1.26 1.26 0 0 0 1.258-1.256v-5.028a1.255 1.255 0 0 0-1.253-1.256Zm-1.261 5.028h-5.029v-2.52h5.029Z" fill="#00a1af">
  </path>
  <path data-name="Path 650" d="M55.308 20.111h-7.547a1.253 1.253 0 0 0-1.257 1.249v5.036a1.253 1.253 0 0 0 1.25 1.256h7.547a1.258 1.258 0 0 0 1.257-1.256v-5.029a1.252 1.252 0 0 0-1.25-1.256Zm-1.263 5.026h-5.029v-2.518h5.03Z" fill="#00a1af">
  </path>
  <path data-name="Path 651" d="M55.315 30.167h-7.554a1.248 1.248 0 0 0-1.257 1.24v5.042a1.256 1.256 0 0 0 1.253 1.258h7.546a1.259 1.259 0 0 0 1.257-1.258v-5.028a1.249 1.249 0 0 0-1.245-1.254Zm-1.27 5.028h-5.029v-2.523h5.03Z" fill="#00a1af">
  </path>
</svg>