<?xml version="1.0" encoding="UTF-8"?><svg id="Layer_1" xmlns="http://www.w3.org/2000/svg" viewBox="0 0 25 25"><defs><style>.cls-1{fill:#fff;}.cls-2{fill:#057f8a;}.cls-3{fill:#002a42;}</style></defs><path class="cls-2" d="M12.5,24.58C5.84,24.58,.42,19.16,.42,12.5S5.84,.42,12.5,.42s12.08,5.42,12.08,12.08-5.42,12.08-12.08,12.08ZM12.5,1.42C6.39,1.42,1.42,6.39,1.42,12.5s4.97,11.08,11.08,11.08,11.08-4.97,11.08-11.08S18.61,1.42,12.5,1.42Z"/><g><rect class="cls-3" x="8.4" y="5.58" width="8.19" height="13.84" rx="1.27" ry="1.27"/><path class="cls-1" d="M12.49,8.09c-.1,0-.18-.02-.27-.05s-.17-.08-.24-.15-.12-.13-.15-.24c-.03-.08-.05-.18-.05-.27s.02-.18,.05-.29c.03-.08,.08-.17,.15-.24s.13-.12,.24-.15c.17-.07,.37-.07,.55,0,.08,.03,.17,.1,.24,.15,.07,.07,.12,.13,.15,.24s.05,.18,.05,.29,0,.18-.05,.27c-.03,.08-.1,.17-.15,.24-.07,.07-.13,.12-.24,.15s-.18,.05-.29,.05Z"/><path class="cls-1" d="M13.52,17.85h-2.05c-.29,0-.51-.29-.51-.65s.22-.65,.51-.65h2.05c.29,0,.51,.29,.51,.65s-.22,.65-.51,.65Z"/></g></svg>