<?xml version="1.0" encoding="UTF-8"?><svg id="Layer_1" xmlns="http://www.w3.org/2000/svg" viewBox="0 0 25 25"><defs><style>.cls-1{fill:#057f8a;}.cls-2{fill:#002a42;}</style></defs><path class="cls-1" d="M12.5,24.58C5.84,24.58,.42,19.16,.42,12.5S5.84,.42,12.5,.42s12.08,5.42,12.08,12.08-5.42,12.08-12.08,12.08ZM12.5,1.42C6.39,1.42,1.42,6.39,1.42,12.5s4.97,11.08,11.08,11.08,11.08-4.97,11.08-11.08S18.61,1.42,12.5,1.42Z"/><g><path class="cls-2" d="M5.13,8.91l7.37,4.28,7.37-4.28c.07-.04,.14-.05,.21-.05v-.11c0-.83-.68-1.51-1.51-1.51H6.42c-.83,0-1.51,.68-1.51,1.51v.11c.07,0,.15,.01,.21,.05Z"/><path class="cls-2" d="M12.71,14.05c-.07,.04-.14,.06-.21,.06s-.15-.02-.21-.06l-7.37-4.28v6.48c0,.83,.68,1.51,1.51,1.51h12.16c.83,0,1.51-.68,1.51-1.51v-6.48l-7.37,4.28Z"/></g></svg>