<?xml version="1.0" encoding="UTF-8"?><svg id="Layer_1" xmlns="http://www.w3.org/2000/svg" viewBox="0 0 60 60"><defs><style>.cls-1{fill:#057f8a;}.cls-2{fill:#002942;}</style></defs><g><path id="path15" class="cls-2" d="M37.08,29.34l-1.87,5.04-.2-1.02c-.35-1.18-1.43-2.46-2.64-3.1l1.71,6.46h2.02l3-7.38h-2.02Z"/><path id="path17" class="cls-1" d="M33.47,29.34h-3.08l-.03,.15c2.4,.61,3.99,2.09,4.64,3.87l-.67-3.4c-.11-.47-.45-.61-.87-.62h0Z"/></g><path class="cls-2" d="M41.13,53.26H6.74c-2.23,0-4.05-1.81-4.05-4.05V26.97c0-2.23,1.81-4.05,4.05-4.05H41.13c2.23,0,4.05,1.81,4.05,4.05v22.25c0,2.23-1.81,4.05-4.05,4.05ZM6.74,24.94c-1.12,0-2.02,.91-2.02,2.02v22.25c0,1.12,.91,2.02,2.02,2.02H41.13c1.12,0,2.02-.91,2.02-2.02V26.97c0-1.12-.91-2.02-2.02-2.02H6.74Z"/><path class="cls-1" d="M15.84,37.08h-6.07c-.56,0-1.01-.45-1.01-1.01v-6.07c0-.56,.45-1.01,1.01-1.01h6.07c.56,0,1.01,.45,1.01,1.01v6.07c0,.56-.45,1.01-1.01,1.01Zm-5.06-2.02h4.05v-4.05h-4.05v4.05Z"/><path class="cls-2" d="M13.82,43.15h-4.05c-.56,0-1.01-.45-1.01-1.01s.45-1.01,1.01-1.01h4.05c.56,0,1.01,.45,1.01,1.01s-.45,1.01-1.01,1.01Z"/><path class="cls-2" d="M19.89,47.2H9.77c-.56,0-1.01-.45-1.01-1.01s.45-1.01,1.01-1.01h10.11c.56,0,1.01,.45,1.01,1.01s-.45,1.01-1.01,1.01Z"/><path class="cls-2" d="M21.91,43.15h-4.05c-.56,0-1.01-.45-1.01-1.01s.45-1.01,1.01-1.01h4.05c.56,0,1.01,.45,1.01,1.01s-.45,1.01-1.01,1.01Z"/><path class="cls-2" d="M30,43.15h-4.05c-.56,0-1.01-.45-1.01-1.01s.45-1.01,1.01-1.01h4.05c.56,0,1.01,.45,1.01,1.01s-.45,1.01-1.01,1.01Z"/><path class="cls-2" d="M38.09,43.15h-4.05c-.56,0-1.01-.45-1.01-1.01s.45-1.01,1.01-1.01h4.05c.56,0,1.01,.45,1.01,1.01s-.45,1.01-1.01,1.01Z"/><path class="cls-2" d="M45.66,47.5c-.47,0-.93-.08-1.39-.25l-.45-.16,.69-1.9,.45,.16c.51,.19,1.06,.16,1.55-.07,.49-.23,.86-.63,1.05-1.14l7.61-20.91c.38-1.05-.16-2.21-1.21-2.59L21.64,8.88c-.51-.18-1.06-.16-1.55,.07-.49,.23-.86,.63-1.05,1.14l-5.16,14.19-1.9-.69,5.16-14.19c.37-1.02,1.11-1.83,2.09-2.28,.98-.46,2.08-.5,3.09-.13l32.31,11.76c2.1,.76,3.18,3.09,2.42,5.19l-7.61,20.91c-.37,1.02-1.11,1.83-2.09,2.28-.54,.25-1.12,.38-1.71,.38Z"/><rect class="cls-2" x="21.71" y="12.88" width="2.02" height="16.47" transform="translate(-4.89 35.24) rotate(-70)"/><rect class="cls-2" x="35.06" y="-.71" width="2.02" height="40.46" transform="translate(5.39 46.73) rotate(-70)"/><rect class="cls-2" x="47.57" y="25.83" width="2.02" height="9.41" transform="translate(3.28 65.74) rotate(-70)"/></svg>