<?xml version="1.0" encoding="UTF-8"?><svg id="Layer_1" xmlns="http://www.w3.org/2000/svg" xmlns:xlink="http://www.w3.org/1999/xlink" viewBox="0 0 60 60"><defs><style>.cls-1{clip-path:url(#clippath);}.cls-2{fill:#057f8a;}.cls-3{fill:none;}.cls-4{fill:#002a42;}</style><clipPath id="clippath"><rect class="cls-3" x="2" y="7.6" width="56" height="44.8"/></clipPath></defs><g class="cls-1"><path class="cls-4" d="M56.13,26.27c0,1.03-.84,1.86-1.87,1.87h-12.13c-.25,0-.49,.1-.66,.27l-5.87,5.87v-5.21c0-.25-.1-.49-.27-.66-.17-.17-.41-.27-.66-.27h-2.8c-1.03,0-1.86-.84-1.87-1.87V11.34c0-1.03,.84-1.87,1.87-1.87h22.4c1.03,0,1.86,.84,1.87,1.87v14.93Zm-1.87-18.67H31.87c-2.06,0-3.73,1.67-3.73,3.74v14.93c0,2.06,1.67,3.73,3.73,3.73h1.87v6.53c0,.38,.23,.72,.58,.86,.12,.05,.24,.07,.36,.07,.24,0,.48-.1,.66-.27l7.19-7.19h11.75c2.06,0,3.73-1.67,3.73-3.73V11.34c0-2.06-1.67-3.74-3.73-3.74M16.93,22.53c3.61,0,6.52,2.92,6.53,6.53,0,3.61-2.92,6.53-6.53,6.53-3.61,0-6.53-2.92-6.53-6.53,0-3.61,2.93-6.53,6.53-6.53m0,14.93c4.64,0,8.4-3.76,8.4-8.4,0-4.64-3.76-8.4-8.4-8.4s-8.4,3.76-8.4,8.4,3.76,8.4,8.4,8.4m13.07,13.07H3.87v-6.69c0-1.55,.99-2.93,2.43-3.42l2.92-.96,7.06,7.06c.18,.18,.41,.27,.66,.27s.48-.1,.66-.27l7.06-7.06,2.92,.96c1.44,.48,2.43,1.86,2.43,3.41v6.69Zm-1.84-11.87l-3.47-1.15c-.33-.11-.7-.02-.95,.23l-6.81,6.8-6.81-6.8c-.25-.25-.62-.34-.95-.23l-3.47,1.15c-2.22,.75-3.7,2.84-3.7,5.19v7.62c0,.24,.1,.49,.27,.66,.17,.18,.41,.27,.66,.27H30.93c.25,0,.48-.1,.66-.27,.18-.18,.27-.41,.27-.66v-7.62c0-2.35-1.49-4.44-3.7-5.18"/></g><path class="cls-2" d="M44.3,21.69h-1.84v-.56c0-.76,.09-1.37,.29-1.84s.59-.99,1.16-1.55c.64-.63,1.02-1.07,1.15-1.3s.19-.51,.19-.82c0-.51-.17-.93-.5-1.26s-.75-.49-1.25-.49c-1.09,0-1.76,.72-2.01,2.17l-1.86-.28c.05-1.1,.43-2,1.14-2.71s1.6-1.06,2.66-1.06,1.99,.36,2.71,1.07,1.08,1.6,1.08,2.66c0,.54-.13,1.05-.38,1.54s-.8,1.15-1.63,1.99c-.43,.43-.69,.78-.8,1.05s-.15,.74-.14,1.42Zm-1.84,3.33v-2.47h2.03v2.47h-2.03Z"/></svg>