<?xml version="1.0" encoding="UTF-8"?><svg id="Layer_1" xmlns="http://www.w3.org/2000/svg" viewBox="0 0 60 60"><defs><style>.cls-1{fill:#057f8a;}.cls-2{fill:#002942;}</style></defs><path class="cls-1" d="M16.23,22.66H5.22c-1.52,0-2.75,1.23-2.75,2.75v23.86c0,1.52,1.23,2.75,2.75,2.75h11.01c1.52,0,2.75-1.23,2.75-2.75V25.41c0-1.52-1.23-2.75-2.75-2.75Zm.92,26.82c0,.51-.41,.92-.92,.92H5.22c-.51,0-.92-.41-.92-.92v-2.76h12.85v2.75Zm0-4.79H4.3V25.41c0-.5,.41-.92,.92-.92h11.01c.51,0,.92,.41,.92,.92v19.28Zm-8.26,3.67c0-.51,.41-.92,.92-.92h1.83c.51,0,.92,.41,.92,.92s-.41,.92-.92,.92h-1.83c-.51,0-.92-.41-.92-.92Z"/><g><path class="cls-2" d="M53.86,7.97H9.81c-2.03,0-3.67,1.64-3.67,3.67v11.01h1.83V11.65c0-1.01,.82-1.84,1.84-1.84H53.86c1.01,0,1.83,.82,1.83,1.84v23.86H18.98v1.83H55.7v3.67c0,1.01-.82,1.83-1.83,1.83H18.98v1.83h7.34v2.26l-5.1,3.4c-.34,.22-.49,.64-.37,1.03,.12,.39,.47,.65,.88,.65h20.19c.4,0,.76-.27,.88-.65,.12-.39-.03-.81-.37-1.03l-5.1-3.4v-2.26h16.52c2.03,0,3.67-1.64,3.67-3.67V11.65c0-2.03-1.64-3.67-3.67-3.67Zm-14.96,42.22h-14.13l2.98-1.99c.26-.17,.41-.46,.41-.76v-2.76h7.34v2.76c0,.31,.15,.59,.41,.76l2.98,1.99Z"/><path class="cls-2" d="M33.67,41.01c.51,0,.92-.41,.92-.92s-.41-.92-.92-.92h-3.67c-.51,0-.92,.41-.92,.92s.41,.92,.92,.92h3.67Z"/></g></svg>