<?xml version="1.0" encoding="UTF-8"?><svg id="Layer_1" xmlns="http://www.w3.org/2000/svg" xmlns:xlink="http://www.w3.org/1999/xlink" viewBox="0 0 60 60"><defs><style>.cls-1{clip-path:url(#clippath);}.cls-2{fill:#057f8a;}.cls-3{fill:none;}.cls-4{fill:#002942;}</style><clipPath id="clippath"><rect class="cls-3" x="2.11" y="4.29" width="55.78" height="51.43"/></clipPath></defs><g class="cls-1"><g id="Group_686"><path id="Path_510" class="cls-4" d="M18.93,16.15H7.06c-.55,0-.99-.44-.99-.99s.44-.99,.99-.99h11.87c.55,0,.99,.44,.99,.99s-.44,.99-.99,.99"/><path id="Path_511" class="cls-4" d="M52.55,45.82h-11.87c-.55,0-.99-.44-.99-.99s.44-.99,.99-.99h11.87c.55,0,.99,.44,.99,.99s-.44,.99-.99,.99"/><path id="Path_512" class="cls-4" d="M11.01,26.04v-1.98c2.73,0,4.94-2.21,4.95-4.94h1.98c0,3.82-3.1,6.92-6.92,6.92"/><path id="Path_513" class="cls-4" d="M43.65,40.88h-1.98c0-3.82,3.1-6.92,6.92-6.92v1.98c-2.73,0-4.94,2.22-4.95,4.95"/><path id="Path_516" class="cls-4" d="M16.95,55.71c-.21,0-.41-.07-.58-.19L2.53,45.64c-.44-.32-.55-.94-.23-1.38,.06-.09,.14-.17,.23-.23l13.85-9.89c.44-.32,1.06-.22,1.38,.23,.12,.17,.18,.37,.18,.58v4.95h29.67V20.81c0-.55,.44-.99,.99-.99s.99,.44,.99,.99v19.07c0,1.09-.89,1.98-1.98,1.98H16.95c-.55,0-.99-.44-.99-.99v-4.01l-11.16,7.97,11.16,7.97v-4.01c0-.55,.44-.99,.99-.99h29.67c.55,0,.99,.44,.99,.99s-.44,.99-.99,.99H17.93v4.95c0,.55-.44,.99-.99,.99"/><path id="Path_517" class="cls-4" d="M11.01,40.17c-.55,0-.99-.44-.99-.99V20.11c0-1.09,.89-1.98,1.98-1.98h30.66c.55,0,.99,.44,.99,.99v4.01l11.16-7.97-11.16-7.97v4.01c0,.55-.44,.99-.99,.99H12.99c-.55,0-.99-.44-.99-.99s.44-.99,.99-.99h28.68V5.27c0-.55,.45-.99,.99-.99,.2,0,.4,.06,.57,.18l13.85,9.89c.44,.32,.55,.94,.23,1.38-.06,.09-.14,.17-.23,.23l-13.85,9.89c-.44,.32-1.06,.22-1.38-.23-.12-.17-.19-.37-.19-.58v-4.95H12v19.07c0,.55-.44,.99-.99,.99"/><path id="Path_518" class="cls-2" d="M29.81,37.91c-4.37,0-7.91-3.54-7.91-7.91s3.54-7.91,7.91-7.91,7.91,3.54,7.91,7.91c0,4.37-3.54,7.91-7.91,7.91m0-13.85c-3.28,0-5.93,2.66-5.93,5.93s2.66,5.93,5.93,5.93,5.93-2.66,5.93-5.93h0c0-3.28-2.66-5.93-5.93-5.93"/></g></g></svg>